<svg width="52" height="52" viewBox="0 0 52 52" fill="none" xmlns="http://www.w3.org/2000/svg">
<circle cx="26" cy="26" r="26" fill="#C7C7C7"/>
<circle cx="26" cy="26" r="20.3478" fill="black"/>
<path fill-rule="evenodd" clip-rule="evenodd" d="M46.8 26C46.8 31.5165 44.6086 36.8071 40.7078 40.7078C36.8071 44.6086 31.5165 46.8 26 46.8C20.4835 46.8 15.1929 44.6086 11.2922 40.7078C7.39142 36.8071 5.2 31.5165 5.2 26C5.2 20.4835 7.39142 15.1929 11.2922 11.2922C15.1929 7.39143 20.4835 5.20001 26 5.20001C31.5165 5.20001 36.8071 7.39143 40.7078 11.2922C44.6086 15.1929 46.8 20.4835 46.8 26V26ZM26 18.2C25.5432 18.1996 25.0943 18.3195 24.6986 18.5477C24.3028 18.7759 23.9742 19.1044 23.7458 19.5C23.5809 19.8065 23.3561 20.0767 23.0848 20.2947C22.8135 20.5127 22.5011 20.674 22.1663 20.7691C21.8315 20.8641 21.4811 20.891 21.1357 20.8481C20.7903 20.8052 20.457 20.6933 20.1557 20.5192C19.8543 20.3451 19.591 20.1123 19.3813 19.8345C19.1715 19.5568 19.0197 19.2397 18.9348 18.9022C18.8499 18.5647 18.8336 18.2136 18.887 17.8696C18.9403 17.5257 19.0621 17.196 19.2452 16.9C20.1038 15.4131 21.429 14.251 23.0153 13.594C24.6016 12.937 26.3603 12.8217 28.0188 13.2661C29.6773 13.7105 31.1428 14.6897 32.1881 16.0519C33.2333 17.414 33.7999 19.083 33.8 20.8C33.8005 22.4136 33.3006 23.9877 32.3694 25.3054C31.4381 26.6232 30.1212 27.6198 28.6 28.158V28.6C28.6 29.2896 28.3261 29.9509 27.8385 30.4385C27.3509 30.9261 26.6896 31.2 26 31.2C25.3104 31.2 24.6491 30.9261 24.1615 30.4385C23.6739 29.9509 23.4 29.2896 23.4 28.6V26C23.4 25.3104 23.6739 24.6491 24.1615 24.1615C24.6491 23.6739 25.3104 23.4 26 23.4C26.6896 23.4 27.3509 23.1261 27.8385 22.6385C28.3261 22.1509 28.6 21.4896 28.6 20.8C28.6 20.1104 28.3261 19.4491 27.8385 18.9615C27.3509 18.4739 26.6896 18.2 26 18.2ZM26 39C26.6896 39 27.3509 38.7261 27.8385 38.2385C28.3261 37.7509 28.6 37.0896 28.6 36.4C28.6 35.7104 28.3261 35.0491 27.8385 34.5615C27.3509 34.0739 26.6896 33.8 26 33.8C25.3104 33.8 24.6491 34.0739 24.1615 34.5615C23.6739 35.0491 23.4 35.7104 23.4 36.4C23.4 37.0896 23.6739 37.7509 24.1615 38.2385C24.6491 38.7261 25.3104 39 26 39V39Z" fill="#C7C7C7"/>
</svg>
