<svg width="52" height="52" viewBox="0 0 52 52" fill="none" xmlns="http://www.w3.org/2000/svg">
<circle cx="26" cy="26" r="26" fill="#C7C7C7" fill-opacity="0.8"/>
<path d="M27.3 13.5087C27.3 13.014 27.1034 12.5396 26.7536 12.1898C26.4039 11.84 25.9294 11.6435 25.4347 11.6435C24.9401 11.6435 24.4656 11.84 24.1158 12.1898C23.766 12.5396 23.5695 13.014 23.5695 13.5087V15.3739C23.5695 15.8686 23.766 16.343 24.1158 16.6928C24.4656 17.0426 24.9401 17.2391 25.4347 17.2391C25.9294 17.2391 26.4039 17.0426 26.7536 16.6928C27.1034 16.343 27.3 15.8686 27.3 15.3739V13.5087ZM35.9863 18.6511C36.326 18.2993 36.514 17.8282 36.5098 17.3391C36.5055 16.8501 36.3094 16.3822 35.9636 16.0364C35.6177 15.6906 35.1499 15.4944 34.6609 15.4902C34.1718 15.4859 33.7006 15.6739 33.3489 16.0137L32.0301 17.3324C31.6904 17.6842 31.5024 18.1553 31.5066 18.6444C31.5109 19.1335 31.707 19.6013 32.0529 19.9471C32.3987 20.2929 32.8665 20.4891 33.3556 20.4933C33.8446 20.4976 34.3158 20.3096 34.6676 19.9698L35.9863 18.6511ZM40.3565 26.5652C40.3565 27.0599 40.16 27.5343 39.8102 27.8841C39.4604 28.2339 38.9859 28.4305 38.4913 28.4305H36.626C36.1314 28.4305 35.6569 28.2339 35.3071 27.8841C34.9573 27.5343 34.7608 27.0599 34.7608 26.5652C34.7608 26.0705 34.9573 25.5961 35.3071 25.2463C35.6569 24.8965 36.1314 24.7 36.626 24.7H38.4913C38.9859 24.7 39.4604 24.8965 39.8102 25.2463C40.16 25.5961 40.3565 26.0705 40.3565 26.5652ZM16.2019 19.9698C16.374 20.148 16.5798 20.2901 16.8074 20.3878C17.0349 20.4856 17.2797 20.537 17.5273 20.5392C17.775 20.5413 18.0206 20.4941 18.2498 20.4004C18.4791 20.3066 18.6873 20.1681 18.8625 19.9929C19.0376 19.8178 19.1761 19.6096 19.2699 19.3803C19.3636 19.1511 19.4108 18.9055 19.4087 18.6578C19.4065 18.4102 19.3551 18.1654 19.2573 17.9378C19.1596 17.7103 19.0175 17.5045 18.8393 17.3324L17.5206 16.0137C17.1688 15.6739 16.6977 15.4859 16.2086 15.4902C15.7196 15.4944 15.2518 15.6906 14.9059 16.0364C14.5601 16.3822 14.3639 16.8501 14.3597 17.3391C14.3554 17.8282 14.5434 18.2993 14.8832 18.6511L16.2019 19.9698V19.9698ZM16.1087 26.5652C16.1087 27.0599 15.9121 27.5343 15.5623 27.8841C15.2125 28.2339 14.7381 28.4305 14.2434 28.4305H12.3782C11.8835 28.4305 11.4091 28.2339 11.0593 27.8841C10.7095 27.5343 10.513 27.0599 10.513 26.5652C10.513 26.0705 10.7095 25.5961 11.0593 25.2463C11.4091 24.8965 11.8835 24.7 12.3782 24.7H14.2434C14.7381 24.7 15.2125 24.8965 15.5623 25.2463C15.9121 25.5961 16.1087 26.0705 16.1087 26.5652ZM21.7043 37.7565V35.8913H29.1652V37.7565C29.1652 38.7459 28.7721 39.6948 28.0726 40.3944C27.373 41.0939 26.4241 41.487 25.4347 41.487C24.4454 41.487 23.4965 41.0939 22.7969 40.3944C22.0973 39.6948 21.7043 38.7459 21.7043 37.7565V37.7565ZM29.1652 34.0261C29.1932 33.3919 29.5531 32.8212 30.0549 32.4239C31.2723 31.4638 32.1603 30.1483 32.5956 28.6602C33.0308 27.1721 32.9917 25.5854 32.4836 24.1205C31.9755 22.6557 31.0236 21.3856 29.7604 20.4867C28.4971 19.5878 26.9852 19.1048 25.4347 19.1048C23.8843 19.1048 22.3724 19.5878 21.1091 20.4867C19.8459 21.3856 18.894 22.6557 18.3859 24.1205C17.8778 25.5854 17.8386 27.1721 18.2739 28.6602C18.7092 30.1483 19.5972 31.4638 20.8146 32.4239C21.3182 32.8212 21.6763 33.3919 21.7024 34.0261H29.167H29.1652Z" fill="#18181B"/>
</svg>
